<?xml version="1.0" encoding="iso-8859-1" ?>
<svg
        version="1.1"
        xmlns="http://www.w3.org/2000/svg"
        viewBox="0 0 853 853"
        width="853"
        height="853"
>
                <g transform="translate(3.739365683301969 3.739365683302026) scale(1.4618480666437694 1.458584172291452)" ><defs>
    <clipPath id="clipPath_J8a-TEXJXoKFhahfSp3Rr">
    <rect x="0" y="0" width="580.95" height="582.25" />
    </clipPath></defs><title>sun_3</title><g id="Layer_2J8a-TEXJXoKFhahfSp3Rr" data-name="Layer 2"><g id="sun_3J8a-TEXJXoKFhahfSp3Rr"><path d="M460.87,279.24c-.29,99.41-62.22,180.06-180,180-88.25-.05-179.59-71-180-180-.32-84.64,80.61-182.26,180-180C390.87,101.75,461.18,171.29,460.87,279.24Z" fill="rgb(242,163,70)"/><path d="M267.1,247.6c-37.84,35.65-41.3,31.74-79.11,23.79a4.31,4.31,0,0,1-2.94-6.22,70,70,0,0,1,12.36-16.71c8-7.91,19.56-15,35.44-15.45,9.43-.27,20.39,1.83,33,7.51A4.31,4.31,0,0,1,267.1,247.6Z" fill="#eae2c2"/><path d="M235.65,243.08a19.5,19.5,0,0,1-38.24,5.38c8-7.91,19.56-15,35.44-15.45A19.36,19.36,0,0,1,235.65,243.08Z" fill="#3b301b"/><path d="M383.38,271.09c-51.28,8.53-52,3.35-79-24.31a4.31,4.31,0,0,1,1-6.8A69.86,69.86,0,0,1,325,233c11.05-2.11,24.61-1.58,38,6.91,8,5,15.93,12.88,23.27,24.64A4.32,4.32,0,0,1,383.38,271.09Z" fill="#eae2c2"/><path d="M359.77,249.81A19.49,19.49,0,0,1,325,233c11.05-2.11,24.61-1.58,38,6.91A19.18,19.18,0,0,1,359.77,249.81Z" fill="#3b301b"/><path d="M287.28,401c-1,0-2,0-2.94,0-60.69-2.09-101-68.47-102.71-71.29a10.5,10.5,0,0,1,18-10.77c.62,1,36.44,59.44,85.48,61.07,30.16,1,60.26-19.75,89.38-61.68a10.5,10.5,0,0,1,17.25,12C359.16,377.23,324,401,287.28,401Z" fill="#eae2c2"/><path d="M162.65,275.3a10.31,10.31,0,0,1-2.5-.31,10.49,10.49,0,0,1-7.7-12.69c.19-.81,5.06-20.08,22.8-36.83,16.07-15.17,46.15-31.31,98.24-22a10.5,10.5,0,1,1-3.69,20.67c-34.91-6.23-61.87-.64-80.13,16.61a62.29,62.29,0,0,0-16.83,26.55A10.5,10.5,0,0,1,162.65,275.3Z" fill="#3b301b"/><path d="M416.94,241.27a10.49,10.49,0,0,1-8.57-4.42c-20.54-28.91-43.68-43.82-68.8-44.31A63,63,0,0,0,309,199.68a10.5,10.5,0,1,1-11-17.85c.71-.44,17.67-10.75,42.07-10.29,22.1.44,54.87,10,85.51,53.14a10.51,10.51,0,0,1-8.55,16.59Z" fill="#3b301b"/><path d="M275.92,75a10.5,10.5,0,0,1-10.46-9.67l-4.28-54a10.5,10.5,0,1,1,20.93-1.66l4.28,54A10.5,10.5,0,0,1,276.76,75Z" fill="rgb(242,163,70)"/><path d="M202.74,91.6a10.49,10.49,0,0,1-9.64-6.31L171.48,35.63a10.5,10.5,0,1,1,19.25-8.39l21.63,49.67a10.5,10.5,0,0,1-9.62,14.69Z" fill="rgb(242,163,70)"/><path d="M138.93,131.13a10.47,10.47,0,0,1-7.74-3.41L94.57,87.81A10.5,10.5,0,1,1,110,73.61l36.62,39.92a10.51,10.51,0,0,1-7.73,17.6Z" fill="rgb(242,163,70)"/><path d="M91.46,189.27a10.5,10.5,0,0,1-5-1.27L38.84,162.18a10.5,10.5,0,0,1,10-18.46l47.62,25.82a10.5,10.5,0,0,1-5,19.73Z" fill="rgb(242,163,70)"/><path d="M65.54,259.7a11.34,11.34,0,0,1-1.74-.14l-53.43-8.91a10.5,10.5,0,0,1,3.45-20.72l53.43,8.91a10.5,10.5,0,0,1-1.71,20.86Z" fill="rgb(242,163,70)"/><path d="M10.49,343.71a10.5,10.5,0,0,1-1.73-20.86l53.42-9a10.5,10.5,0,1,1,3.48,20.71l-53.42,9A10.43,10.43,0,0,1,10.49,343.71Z" fill="rgb(242,163,70)"/><path d="M39.26,432.08a10.5,10.5,0,0,1-5-19.72l47.59-25.88a10.5,10.5,0,1,1,10,18.45L44.26,430.81A10.5,10.5,0,0,1,39.26,432.08Z" fill="rgb(242,163,70)"/><path d="M95.2,506.28a10.49,10.49,0,0,1-7.74-17.59l36.57-40a10.5,10.5,0,0,1,15.49,14.18l-36.57,40A10.49,10.49,0,0,1,95.2,506.28Z" fill="rgb(242,163,70)"/><path d="M172.26,558.23a10.33,10.33,0,0,1-4.18-.88,10.5,10.5,0,0,1-5.45-13.81l21.57-49.69a10.5,10.5,0,0,1,19.27,8.36L181.89,551.9A10.5,10.5,0,0,1,172.26,558.23Z" fill="rgb(242,163,70)"/><path d="M262.05,582.25a7.69,7.69,0,0,1-.83,0,10.5,10.5,0,0,1-9.65-11.28l4.22-54a10.5,10.5,0,1,1,20.93,1.64l-4.22,54A10.49,10.49,0,0,1,262.05,582.25Z" fill="rgb(242,163,70)"/><path d="M354.73,575.73a10.48,10.48,0,0,1-10.15-7.86L331,515.43a10.5,10.5,0,0,1,20.33-5.27L364.9,562.6a10.5,10.5,0,0,1-7.52,12.8A11.05,11.05,0,0,1,354.73,575.73Z" fill="rgb(242,163,70)"/><path d="M440.28,539.39a10.49,10.49,0,0,1-8.76-4.7L401.6,489.54a10.5,10.5,0,1,1,17.5-11.6L449,523.09a10.5,10.5,0,0,1-8.74,16.3Z" fill="rgb(242,163,70)"/><path d="M509.31,477.19a10.45,10.45,0,0,1-6.38-2.17l-43-32.95a10.5,10.5,0,0,1,12.78-16.67l43,33a10.5,10.5,0,0,1-6.39,18.84Z" fill="rgb(242,163,70)"/><path d="M554.34,395.89a10.5,10.5,0,0,1-3.33-.54l-51.38-17.16a10.5,10.5,0,1,1,6.66-19.92l51.38,17.16a10.5,10.5,0,0,1-3.33,20.46Z" fill="rgb(242,163,70)"/><path d="M516.28,304.87a10.5,10.5,0,0,1-.1-21l54.17-.51h.1a10.5,10.5,0,0,1,.09,21l-54.16.51Z" fill="rgb(242,163,70)"/><path d="M504.83,230.7a10.5,10.5,0,0,1-3.51-20.4l51.05-18.11a10.5,10.5,0,0,1,7,19.79l-51.05,18.11A10.55,10.55,0,0,1,504.83,230.7Z" fill="rgb(242,163,70)"/><path d="M469.86,164.29a10.5,10.5,0,0,1-6.55-18.72l42.37-33.74a10.5,10.5,0,1,1,13.08,16.42L476.39,162A10.44,10.44,0,0,1,469.86,164.29Z" fill="rgb(242,163,70)"/><path d="M415.15,112.89a10.5,10.5,0,0,1-8.85-16.14l29.08-45.7a10.5,10.5,0,1,1,17.71,11.27L424,108A10.47,10.47,0,0,1,415.15,112.89Z" fill="rgb(242,163,70)"/><path d="M346.72,82.1A10.54,10.54,0,0,1,336.5,69.15l12.61-52.68a10.5,10.5,0,0,1,20.43,4.89L356.92,74A10.5,10.5,0,0,1,346.72,82.1Z" fill="rgb(242,163,70)"/><path d="M138.93,238.26a7.7,7.7,0,0,1-2.35-.38,7.49,7.49,0,0,1-4.78-9.45c.31-.93,7.76-23.17,30.62-47.66,20.87-22.38,59.22-51.07,123.36-60.69A7.5,7.5,0,0,1,288,134.92c-59.46,8.91-94.86,35.1-114.08,55.5-20.87,22.14-27.81,42.49-27.88,42.7A7.53,7.53,0,0,1,138.93,238.26Z" fill="rgb(255,191,133)"/></g></g></g><g transform="translate(220.25000000000003 198.48606488187832) scale(1.225208914850161 1.2237801072281702)" ><defs>
    <clipPath id="clipPath_R0ljYrc0SNtdiyfIrStk1">
    <rect x="0" y="0" width="360.63" height="360.13" />
    </clipPath></defs><title>sun_1</title><g id="Layer_2R0ljYrc0SNtdiyfIrStk1" data-name="Layer 2"><g id="sun_1R0ljYrc0SNtdiyfIrStk1"><path d="M360.32,180.05c5.93,99.23-74,183.05-180,180C81,357.19,7.23,288.83.32,180.05-6,80.83,80.94-2.22,180.32.05,290.32,2.55,354.32,79.67,360.32,180.05Z" fill="rgb(242,163,70)"/><path d="M54.47,211.46a7.5,7.5,0,0,1-7.25-5.6c-.59-2.24-14-55.43,15.22-103.31,19.7-32.26,53.78-54,101.3-64.53A7.5,7.5,0,0,1,167,52.66c-43.32,9.62-74.15,29-91.66,57.57-25.95,42.34-13.72,91.36-13.59,91.85a7.51,7.51,0,0,1-5.38,9.14A7.71,7.71,0,0,1,54.47,211.46Z" fill="rgb(255,191,133)"/></g></g></g>
              </svg>
