<?xml version="1.0" encoding="iso-8859-1" ?>
              <svg
                version="1.1"
                xmlns="http://www.w3.org/2000/svg"
                viewBox="0 0 803.9999999999999 804"
                width="803.9999999999999"
                height="804"
              >
                <g transform="translate(52.61474363309327 625.71) scale(1 1)" ><defs>
    <clipPath id="clipPath_yZnQXvzI6xks21o9poBy4">
    <rect x="undefined" y="undefined" width="727.477783203125" height="270" />
    </clipPath></defs>
                    <svg xmlns="http://www.w3.org/2000/svg" width="727.477783203125" height="270"><path fill="#96999a" stroke="#96999a" d="M41.13 58.10Q41.13 62.16 39.06 65.57Q36.99 68.98 32.97 71.01Q28.94 73.04 23.21 73.04L23.21 73.04Q14.58 73.04 8.99 68.83Q3.41 64.63 2.90 57.08L2.90 57.08L16.10 57.08Q16.39 59.99 18.17 61.65Q19.95 63.32 22.70 63.32L22.70 63.32Q25.10 63.32 26.47 62.02Q27.85 60.71 27.85 58.54L27.85 58.54Q27.85 56.58 26.58 55.27Q25.31 53.97 23.43 53.13Q21.54 52.30 18.21 51.14L18.21 51.14Q13.35 49.47 10.26 47.91Q7.18 46.35 4.97 43.27Q2.76 40.18 2.76 35.25L2.76 35.25Q2.76 30.68 5.08 27.35Q7.40 24.01 11.50 22.23Q15.59 20.45 20.89 20.45L20.89 20.45Q29.45 20.45 34.49 24.52Q39.53 28.58 40.18 35.69L40.18 35.69L26.77 35.69Q26.40 33.15 24.92 31.66Q23.43 30.17 20.89 30.17L20.89 30.17Q18.71 30.17 17.37 31.33Q16.03 32.50 16.03 34.74L16.03 34.74Q16.03 36.56 17.23 37.83Q18.42 39.10 20.24 39.89Q22.05 40.69 25.46 41.92L25.46 41.92Q30.39 43.59 33.51 45.23Q36.63 46.86 38.88 49.98Q41.13 53.09 41.13 58.10L41.13 58.10ZM67.02 61.87L70.94 61.87L70.94 72.53L65.35 72.53Q58.24 72.53 54.29 69.02Q50.34 65.50 50.34 57.37L50.34 57.37L50.34 42.50L44.90 42.50L44.90 32.06L50.34 32.06L50.34 22.12L62.74 22.12L62.74 32.06L70.87 32.06L70.87 42.50L62.74 42.50L62.74 57.59Q62.74 59.99 63.72 60.93Q64.70 61.87 67.02 61.87L67.02 61.87ZM116.34 51.21Q116.34 52.73 115.98 54.55L115.98 54.55L87.91 54.55Q88.13 59.12 90.23 61.11Q92.34 63.10 95.60 63.10L95.60 63.10Q98.36 63.10 100.17 61.73Q101.98 60.35 102.56 58.17L102.56 58.17L115.69 58.17Q114.89 62.45 112.21 65.82Q109.53 69.20 105.39 71.12Q101.26 73.04 96.18 73.04L96.18 73.04Q90.23 73.04 85.63 70.54Q81.02 68.04 78.41 63.32Q75.80 58.61 75.80 52.30L75.80 52.30Q75.80 45.91 78.37 41.24Q80.95 36.56 85.59 34.05Q90.23 31.55 96.18 31.55L96.18 31.55Q102.20 31.55 106.77 34.02Q111.34 36.48 113.84 40.95Q116.34 45.41 116.34 51.21L116.34 51.21ZM103.80 49.32Q103.87 45.33 101.66 43.34Q99.44 41.34 96.18 41.34L96.18 41.34Q92.77 41.34 90.52 43.38Q88.27 45.41 87.98 49.32L87.98 49.32L103.80 49.32ZM122.80 18.86L135.20 18.86L135.20 72.53L122.80 72.53L122.80 18.86ZM143.76 18.86L156.17 18.86L156.17 72.53L143.76 72.53L143.76 18.86ZM180.10 31.55Q184.74 31.55 188.08 33.66Q191.42 35.76 193.01 39.39L193.01 39.39L193.01 32.06L205.34 32.06L205.34 72.53L193.01 72.53L193.01 65.21Q191.42 68.83 188.08 70.94Q184.74 73.04 180.10 73.04L180.10 73.04Q175.10 73.04 171.14 70.54Q167.19 68.04 164.91 63.32Q162.62 58.61 162.62 52.30L162.62 52.30Q162.62 45.91 164.91 41.24Q167.19 36.56 171.14 34.05Q175.10 31.55 180.10 31.55L180.10 31.55ZM184.09 42.43Q180.10 42.43 177.67 45.04Q175.24 47.65 175.24 52.30L175.24 52.30Q175.24 56.94 177.67 59.55Q180.10 62.16 184.09 62.16L184.09 62.16Q188.01 62.16 190.51 59.48Q193.01 56.79 193.01 52.30L193.01 52.30Q193.01 47.73 190.51 45.08Q188.01 42.43 184.09 42.43L184.09 42.43ZM226.31 39.68Q228.63 35.98 232.29 33.80Q235.95 31.62 240.23 31.62L240.23 31.62L240.23 44.90L236.68 44.90Q231.75 44.90 229.03 47.00Q226.31 49.11 226.31 54.11L226.31 54.11L226.31 72.53L213.90 72.53L213.90 32.06L226.31 32.06L226.31 39.68ZM283.39 20.74Q293.18 20.74 299.60 25.89Q306.02 31.04 307.91 39.82L307.91 39.82L294.78 39.82Q293.33 36.27 290.32 34.24Q287.31 32.21 283.17 32.21L283.17 32.21Q277.73 32.21 274.40 36.19Q271.06 40.18 271.06 46.86L271.06 46.86Q271.06 53.53 274.40 57.48Q277.73 61.44 283.17 61.44L283.17 61.44Q287.31 61.44 290.32 59.41Q293.33 57.37 294.78 53.89L294.78 53.89L307.91 53.89Q306.02 62.60 299.60 67.78Q293.18 72.97 283.39 72.97L283.39 72.97Q275.92 72.97 270.26 69.67Q264.60 66.37 261.52 60.42Q258.44 54.47 258.44 46.86L258.44 46.86Q258.44 39.24 261.52 33.29Q264.60 27.35 270.26 24.05Q275.92 20.74 283.39 20.74L283.39 20.74ZM353.31 51.21Q353.31 52.73 352.95 54.55L352.95 54.55L324.88 54.55Q325.10 59.12 327.20 61.11Q329.30 63.10 332.57 63.10L332.57 63.10Q335.33 63.10 337.14 61.73Q338.95 60.35 339.53 58.17L339.53 58.17L352.66 58.17Q351.86 62.45 349.18 65.82Q346.50 69.20 342.36 71.12Q338.23 73.04 333.15 73.04L333.15 73.04Q327.20 73.04 322.60 70.54Q317.99 68.04 315.38 63.32Q312.77 58.61 312.77 52.30L312.77 52.30Q312.77 45.91 315.34 41.24Q317.92 36.56 322.56 34.05Q327.20 31.55 333.15 31.55L333.15 31.55Q339.17 31.55 343.74 34.02Q348.31 36.48 350.81 40.95Q353.31 45.41 353.31 51.21L353.31 51.21ZM340.77 49.32Q340.84 45.33 338.63 43.34Q336.41 41.34 333.15 41.34L333.15 41.34Q329.74 41.34 327.49 43.38Q325.24 45.41 324.95 49.32L324.95 49.32L340.77 49.32ZM359.77 18.86L372.17 18.86L372.17 72.53L359.77 72.53L359.77 18.86ZM380.73 18.86L393.13 18.86L393.13 72.53L380.73 72.53L380.73 18.86ZM417.07 31.55Q421.71 31.55 425.05 33.66Q428.39 35.76 429.98 39.39L429.98 39.39L429.98 32.06L442.31 32.06L442.31 72.53L429.98 72.53L429.98 65.21Q428.39 68.83 425.05 70.94Q421.71 73.04 417.07 73.04L417.07 73.04Q412.07 73.04 408.11 70.54Q404.16 68.04 401.88 63.32Q399.59 58.61 399.59 52.30L399.59 52.30Q399.59 45.91 401.88 41.24Q404.16 36.56 408.11 34.05Q412.07 31.55 417.07 31.55L417.07 31.55ZM421.06 42.43Q417.07 42.43 414.64 45.04Q412.21 47.65 412.21 52.30L412.21 52.30Q412.21 56.94 414.64 59.55Q417.07 62.16 421.06 62.16L421.06 62.16Q424.98 62.16 427.48 59.48Q429.98 56.79 429.98 52.30L429.98 52.30Q429.98 47.73 427.48 45.08Q424.98 42.43 421.06 42.43L421.06 42.43ZM463.28 39.68Q465.60 35.98 469.26 33.80Q472.92 31.62 477.20 31.62L477.20 31.62L477.20 44.90L473.65 44.90Q468.72 44.90 466.00 47.00Q463.28 49.11 463.28 54.11L463.28 54.11L463.28 72.53L450.87 72.53L450.87 32.06L463.28 32.06L463.28 39.68ZM543.06 46.78Q543.06 54.33 539.83 60.17Q536.61 66.01 530.55 69.27Q524.49 72.53 516.30 72.53L516.30 72.53L496.93 72.53L496.93 21.25L516.30 21.25Q524.57 21.25 530.59 24.44Q536.61 27.64 539.83 33.44Q543.06 39.24 543.06 46.78L543.06 46.78ZM515.21 61.44Q522.46 61.44 526.49 57.59Q530.51 53.75 530.51 46.78L530.51 46.78Q530.51 39.82 526.49 35.98Q522.46 32.13 515.21 32.13L515.21 32.13L509.33 32.13L509.33 61.44L515.21 61.44ZM569.03 31.55Q575.05 31.55 579.80 34.05Q584.55 36.56 587.27 41.27Q589.99 45.99 589.99 52.30L589.99 52.30Q589.99 58.61 587.27 63.32Q584.55 68.04 579.80 70.54Q575.05 73.04 569.03 73.04L569.03 73.04Q563.01 73.04 558.22 70.54Q553.44 68.04 550.72 63.32Q548.00 58.61 548.00 52.30L548.00 52.30Q548.00 45.99 550.72 41.27Q553.44 36.56 558.22 34.05Q563.01 31.55 569.03 31.55L569.03 31.55ZM569.03 42.29Q565.48 42.29 563.05 44.86Q560.62 47.44 560.62 52.30L560.62 52.30Q560.62 57.16 563.05 59.70Q565.48 62.23 569.03 62.23L569.03 62.23Q572.58 62.23 574.98 59.70Q577.37 57.16 577.37 52.30L577.37 52.30Q577.37 47.44 574.98 44.86Q572.58 42.29 569.03 42.29L569.03 42.29ZM615.38 31.55Q621.40 31.55 626.15 34.05Q630.90 36.56 633.62 41.27Q636.34 45.99 636.34 52.30L636.34 52.30Q636.34 58.61 633.62 63.32Q630.90 68.04 626.15 70.54Q621.40 73.04 615.38 73.04L615.38 73.04Q609.36 73.04 604.57 70.54Q599.78 68.04 597.06 63.32Q594.34 58.61 594.34 52.30L594.34 52.30Q594.34 45.99 597.06 41.27Q599.78 36.56 604.57 34.05Q609.36 31.55 615.38 31.55L615.38 31.55ZM615.38 42.29Q611.83 42.29 609.40 44.86Q606.97 47.44 606.97 52.30L606.97 52.30Q606.97 57.16 609.40 59.70Q611.83 62.23 615.38 62.23L615.38 62.23Q618.93 62.23 621.33 59.70Q623.72 57.16 623.72 52.30L623.72 52.30Q623.72 47.44 621.33 44.86Q618.93 42.29 615.38 42.29L615.38 42.29ZM655.20 39.68Q657.52 35.98 661.18 33.80Q664.85 31.62 669.13 31.62L669.13 31.62L669.13 44.90L665.57 44.90Q660.64 44.90 657.92 47.00Q655.20 49.11 655.20 54.11L655.20 54.11L655.20 72.53L642.80 72.53L642.80 32.06L655.20 32.06L655.20 39.68ZM689.07 31.55Q696.76 31.55 701.37 35.40Q705.97 39.24 707.13 45.55L707.13 45.55L695.53 45.55Q695.02 43.09 693.24 41.67Q691.47 40.26 688.78 40.26L688.78 40.26Q686.68 40.26 685.59 41.16Q684.50 42.07 684.50 43.74L684.50 43.74Q684.50 45.62 686.50 46.57Q688.49 47.51 692.77 48.45L692.77 48.45Q697.42 49.54 700.39 50.67Q703.36 51.79 705.54 54.33Q707.72 56.87 707.72 61.15L707.72 61.15Q707.72 64.63 705.83 67.31Q703.94 70.00 700.39 71.52Q696.84 73.04 691.98 73.04L691.98 73.04Q683.78 73.04 678.85 69.42Q673.91 65.79 672.83 59.04L672.83 59.04L684.79 59.04Q685.08 61.65 687.01 63.03Q688.93 64.41 691.98 64.41L691.98 64.41Q694.08 64.41 695.17 63.43Q696.25 62.45 696.25 60.86L696.25 60.86Q696.25 58.75 694.26 57.85Q692.27 56.94 687.77 55.92L687.77 55.92Q683.27 54.98 680.37 53.89Q677.47 52.80 675.36 50.37Q673.26 47.95 673.26 43.74L673.26 43.74Q673.26 38.30 677.40 34.93Q681.53 31.55 689.07 31.55L689.07 31.55Z"/></svg></g><g transform="translate(81.75013797142816 37.24000000000001) scale(0.738257434586099 0.738257434586099)" ><defs>
    <clipPath id="clipPath_CeQ1RblLdAIf1LpDAPMod">
    <rect x="0" y="0" width="853" height="853" />
    </clipPath></defs>                 <g transform="translate(82.07416998988998 77.37725398786796) scale(1.1240278784957947 1.1215182413261175)"><defs>     <clipPath id="clipPath_drZEjdu_HBJV97H43UY-YCeQ1RblLdAIf1LpDAPMod">     <rect x="0" y="0" width="580.95" height="582.25"/>     </clipPath></defs><title>sun_3</title><g id="Layer_2drZEjdu_HBJV97H43UY-YCeQ1RblLdAIf1LpDAPMod" data-name="Layer 2"><g id="sun_3drZEjdu_HBJV97H43UY-YCeQ1RblLdAIf1LpDAPMod"><path d="M460.87,279.24c-.29,99.41-62.22,180.06-180,180-88.25-.05-179.59-71-180-180-.32-84.64,80.61-182.26,180-180C390.87,101.75,461.18,171.29,460.87,279.24Z" fill="rgb(241,143,26)"/><path d="M267.1,247.6c-37.84,35.65-41.3,31.74-79.11,23.79a4.31,4.31,0,0,1-2.94-6.22,70,70,0,0,1,12.36-16.71c8-7.91,19.56-15,35.44-15.45,9.43-.27,20.39,1.83,33,7.51A4.31,4.31,0,0,1,267.1,247.6Z" fill="#eae2c2"/><path d="M235.65,243.08a19.5,19.5,0,0,1-38.24,5.38c8-7.91,19.56-15,35.44-15.45A19.36,19.36,0,0,1,235.65,243.08Z" fill="#3b301b"/><path d="M383.38,271.09c-51.28,8.53-52,3.35-79-24.31a4.31,4.31,0,0,1,1-6.8A69.86,69.86,0,0,1,325,233c11.05-2.11,24.61-1.58,38,6.91,8,5,15.93,12.88,23.27,24.64A4.32,4.32,0,0,1,383.38,271.09Z" fill="#eae2c2"/><path d="M359.77,249.81A19.49,19.49,0,0,1,325,233c11.05-2.11,24.61-1.58,38,6.91A19.18,19.18,0,0,1,359.77,249.81Z" fill="#3b301b"/><path d="M287.28,401c-1,0-2,0-2.94,0-60.69-2.09-101-68.47-102.71-71.29a10.5,10.5,0,0,1,18-10.77c.62,1,36.44,59.44,85.48,61.07,30.16,1,60.26-19.75,89.38-61.68a10.5,10.5,0,0,1,17.25,12C359.16,377.23,324,401,287.28,401Z" fill="#eae2c2"/><path d="M162.65,275.3a10.31,10.31,0,0,1-2.5-.31,10.49,10.49,0,0,1-7.7-12.69c.19-.81,5.06-20.08,22.8-36.83,16.07-15.17,46.15-31.31,98.24-22a10.5,10.5,0,1,1-3.69,20.67c-34.91-6.23-61.87-.64-80.13,16.61a62.29,62.29,0,0,0-16.83,26.55A10.5,10.5,0,0,1,162.65,275.3Z" fill="#3b301b"/><path d="M416.94,241.27a10.49,10.49,0,0,1-8.57-4.42c-20.54-28.91-43.68-43.82-68.8-44.31A63,63,0,0,0,309,199.68a10.5,10.5,0,1,1-11-17.85c.71-.44,17.67-10.75,42.07-10.29,22.1.44,54.87,10,85.51,53.14a10.51,10.51,0,0,1-8.55,16.59Z" fill="#3b301b"/><path d="M275.92,75a10.5,10.5,0,0,1-10.46-9.67l-4.28-54a10.5,10.5,0,1,1,20.93-1.66l4.28,54A10.5,10.5,0,0,1,276.76,75Z" fill="rgb(241,143,26)"/><path d="M202.74,91.6a10.49,10.49,0,0,1-9.64-6.31L171.48,35.63a10.5,10.5,0,1,1,19.25-8.39l21.63,49.67a10.5,10.5,0,0,1-9.62,14.69Z" fill="rgb(241,143,26)"/><path d="M138.93,131.13a10.47,10.47,0,0,1-7.74-3.41L94.57,87.81A10.5,10.5,0,1,1,110,73.61l36.62,39.92a10.51,10.51,0,0,1-7.73,17.6Z" fill="rgb(241,143,26)"/><path d="M91.46,189.27a10.5,10.5,0,0,1-5-1.27L38.84,162.18a10.5,10.5,0,0,1,10-18.46l47.62,25.82a10.5,10.5,0,0,1-5,19.73Z" fill="rgb(241,143,26)"/><path d="M65.54,259.7a11.34,11.34,0,0,1-1.74-.14l-53.43-8.91a10.5,10.5,0,0,1,3.45-20.72l53.43,8.91a10.5,10.5,0,0,1-1.71,20.86Z" fill="rgb(241,143,26)"/><path d="M10.49,343.71a10.5,10.5,0,0,1-1.73-20.86l53.42-9a10.5,10.5,0,1,1,3.48,20.71l-53.42,9A10.43,10.43,0,0,1,10.49,343.71Z" fill="rgb(241,143,26)"/><path d="M39.26,432.08a10.5,10.5,0,0,1-5-19.72l47.59-25.88a10.5,10.5,0,1,1,10,18.45L44.26,430.81A10.5,10.5,0,0,1,39.26,432.08Z" fill="rgb(241,143,26)"/><path d="M95.2,506.28a10.49,10.49,0,0,1-7.74-17.59l36.57-40a10.5,10.5,0,0,1,15.49,14.18l-36.57,40A10.49,10.49,0,0,1,95.2,506.28Z" fill="rgb(241,143,26)"/><path d="M172.26,558.23a10.33,10.33,0,0,1-4.18-.88,10.5,10.5,0,0,1-5.45-13.81l21.57-49.69a10.5,10.5,0,0,1,19.27,8.36L181.89,551.9A10.5,10.5,0,0,1,172.26,558.23Z" fill="rgb(241,143,26)"/><path d="M262.05,582.25a7.69,7.69,0,0,1-.83,0,10.5,10.5,0,0,1-9.65-11.28l4.22-54a10.5,10.5,0,1,1,20.93,1.64l-4.22,54A10.49,10.49,0,0,1,262.05,582.25Z" fill="rgb(241,143,26)"/><path d="M354.73,575.73a10.48,10.48,0,0,1-10.15-7.86L331,515.43a10.5,10.5,0,0,1,20.33-5.27L364.9,562.6a10.5,10.5,0,0,1-7.52,12.8A11.05,11.05,0,0,1,354.73,575.73Z" fill="rgb(241,143,26)"/><path d="M440.28,539.39a10.49,10.49,0,0,1-8.76-4.7L401.6,489.54a10.5,10.5,0,1,1,17.5-11.6L449,523.09a10.5,10.5,0,0,1-8.74,16.3Z" fill="rgb(241,143,26)"/><path d="M509.31,477.19a10.45,10.45,0,0,1-6.38-2.17l-43-32.95a10.5,10.5,0,0,1,12.78-16.67l43,33a10.5,10.5,0,0,1-6.39,18.84Z" fill="rgb(241,143,26)"/><path d="M554.34,395.89a10.5,10.5,0,0,1-3.33-.54l-51.38-17.16a10.5,10.5,0,1,1,6.66-19.92l51.38,17.16a10.5,10.5,0,0,1-3.33,20.46Z" fill="rgb(241,143,26)"/><path d="M516.28,304.87a10.5,10.5,0,0,1-.1-21l54.17-.51h.1a10.5,10.5,0,0,1,.09,21l-54.16.51Z" fill="rgb(241,143,26)"/><path d="M504.83,230.7a10.5,10.5,0,0,1-3.51-20.4l51.05-18.11a10.5,10.5,0,0,1,7,19.79l-51.05,18.11A10.55,10.55,0,0,1,504.83,230.7Z" fill="rgb(241,143,26)"/><path d="M469.86,164.29a10.5,10.5,0,0,1-6.55-18.72l42.37-33.74a10.5,10.5,0,1,1,13.08,16.42L476.39,162A10.44,10.44,0,0,1,469.86,164.29Z" fill="rgb(241,143,26)"/><path d="M415.15,112.89a10.5,10.5,0,0,1-8.85-16.14l29.08-45.7a10.5,10.5,0,1,1,17.71,11.27L424,108A10.47,10.47,0,0,1,415.15,112.89Z" fill="rgb(241,143,26)"/><path d="M346.72,82.1A10.54,10.54,0,0,1,336.5,69.15l12.61-52.68a10.5,10.5,0,0,1,20.43,4.89L356.92,74A10.5,10.5,0,0,1,346.72,82.1Z" fill="rgb(241,143,26)"/><path d="M138.93,238.26a7.7,7.7,0,0,1-2.35-.38,7.49,7.49,0,0,1-4.78-9.45c.31-.93,7.76-23.17,30.62-47.66,20.87-22.38,59.22-51.07,123.36-60.69A7.5,7.5,0,0,1,288,134.92c-59.46,8.91-94.86,35.1-114.08,55.5-20.87,22.14-27.81,42.49-27.88,42.7A7.53,7.53,0,0,1,138.93,238.26Z" fill="rgb(255,171,89)"/></g></g></g><g transform="translate(196.87028741549332 185.17105402524146) scale(1.1513896655891298 1.1501129582436267)"><defs>     <clipPath id="clipPath_KzrBvispM2mYb14gt3njCCeQ1RblLdAIf1LpDAPMod">     <rect x="0" y="0" width="360.63" height="360.13"/>     </clipPath></defs><title>sun_1</title><g id="Layer_2KzrBvispM2mYb14gt3njCCeQ1RblLdAIf1LpDAPMod" data-name="Layer 2"><g id="sun_1KzrBvispM2mYb14gt3njCCeQ1RblLdAIf1LpDAPMod"><path d="M360.32,180.05c5.93,99.23-74,183.05-180,180C81,357.19,7.23,288.83.32,180.05-6,80.83,80.94-2.22,180.32.05,290.32,2.55,354.32,79.67,360.32,180.05Z" fill="rgb(242,163,70)"/><path d="M54.47,211.46a7.5,7.5,0,0,1-7.25-5.6c-.59-2.24-14-55.43,15.22-103.31,19.7-32.26,53.78-54,101.3-64.53A7.5,7.5,0,0,1,167,52.66c-43.32,9.62-74.15,29-91.66,57.57-25.95,42.34-13.72,91.36-13.59,91.85a7.51,7.51,0,0,1-5.38,9.14A7.71,7.71,0,0,1,54.47,211.46Z" fill="rgb(255,191,133)"/></g></g></g><g transform="translate(812.9818051309026 474.8348214285715) scale(-4.8601157365774785 4.868794514678509)"><defs>     <clipPath id="clipPath_4ugpiimlNF6z0PB6V5wlBCeQ1RblLdAIf1LpDAPMod">     <rect x="0" y="0" width="102" height="60"/>     </clipPath></defs>  <title>cloud_2</title> <g id="Layer_1-24ugpiimlNF6z0PB6V5wlBCeQ1RblLdAIf1LpDAPMod">  <path d="M88.8,21.2C87.3,8.1,75.4-1.4,62.2,0.2C55,1,48.6,5,44.7,11.1C35.4,6.3,24,9.9,19.1,19.2   c-0.8,1.5-1.4,3.1-1.7,4.8C7.5,24.3-0.3,32.6,0,42.6C0.3,52.3,8.3,60,18,60h64c11,0,20-8.9,20-20C102,31.6,96.7,24.1,88.8,21.2z" fill="#BBDEFB"/> </g> </g>               </g>
              </svg>
