<?xml version="1.0" encoding="UTF-8"?><svg version="1.1" id="Layer_1" xmlns="http://www.w3.org/2000/svg" xmlns:xlink="http://www.w3.org/1999/xlink" x="0px" y="0px" width="474.076px" height="151.059px" viewBox="0 0 474.076 151.059" enable-background="new 0 0 474.076 151.059" xml:space="preserve">
<path fill="#F7931E" d="M62.191,72.451c19.175,3.953,39.401,14.587,57.315,22.086c19.424,8.131,111.35,18.859,136.082,21.153
	c36.33,3.369,70.763-3.631,106.652-2.26c0.654,13.147,2.543,24.722,3.237,37.463c-17.115,0.549-36.138-0.428-53.786-0.62
	c-19.455-0.212-49.519,0.375-68.867-1.982c-41.445-5.049-69.626-1.352-128.286-35.685c-14.177-8.298-30.432-28.18-44.867-35.538
	C57.637,70.933,39.623,67.798,62.191,72.451z"/>
<path fill="#E94A47" d="M471.379,57.843H417.43V15.638c0-5.061,4.103-9.164,9.164-9.164h35.621c5.061,0,9.164,4.103,9.164,9.164
	V57.843z"/>
<linearGradient id="SVGID_1_" gradientUnits="userSpaceOnUse" x1="323.0197" y1="75.5282" x2="474.076" y2="75.5282">
	<stop offset="0" style="stop-color:#A1C3FC"/>
	<stop offset="1" style="stop-color:#78A9EF"/>
</linearGradient>
<path fill="url(#SVGID_1_)" d="M400.166,151.056h-72.291c-2.682,0-4.855-2.174-4.855-4.855V73.91C323.02,33.091,356.11,0,396.929,0
	h3.237c40.819,0,73.91,33.091,73.91,73.91v3.237C474.076,117.966,440.986,151.056,400.166,151.056z"/>
<circle fill="#EEEEEE" cx="398.548" cy="75.528" r="29.132"/>
<path fill="#F7931E" d="M37.325,71.954C20.148,73.895,5.728,92.97,1.669,111.378c10.944,0.545,21.632,1.059,32.467,0.435
	c-1.884-7.537-0.844-15.795,0.163-21.949c1.077-6.585,4.746-14.956,10.418-19.215C44.165,71.285,38.2,71.855,37.325,71.954z"/>
<rect x="0" y="109.929" fill="#D6D7D8" width="35.239" height="4.637"/>
<g>
	<polygon fill="#23286B" points="258.201,125.451 256.201,125.451 256.201,115.741 258.201,115.767 	"/>
</g>
<g>
	<polygon fill="#23286B" points="249.802,146.873 259.92,138.147 261.227,139.66 255.19,144.867 261.946,144.859 261.948,146.859 	
		"/>
</g>
<g>
	<path fill="#23286B" d="M262.947,135.334h-2c0-2.477-2.015-4.492-4.492-4.492c-2.477,0-4.492,2.016-4.492,4.492h-2
		c0-3.58,2.912-6.492,6.492-6.492C260.035,128.842,262.947,131.754,262.947,135.334z"/>
</g>
<g>
	<polygon fill="#23286B" points="284.727,123.723 282.727,123.723 282.727,116.553 284.727,116.532 	"/>
</g>
<g>
	<polygon fill="#23286B" points="99.043,91.755 97.043,91.755 97.043,84.628 99.043,85.488 	"/>
</g>
<g>
	<polygon fill="#23286B" points="125.569,102.943 123.569,102.943 123.569,96.003 125.569,96.542 	"/>
</g>
<g>
	<polygon fill="#23286B" points="311.253,122.217 309.253,122.217 309.253,115.315 311.253,115.168 	"/>
</g>
<g>
	<polygon fill="#23286B" points="231.674,120.15 229.674,120.15 229.674,112.93 231.674,113.14 	"/>
</g>
<g>
	<polygon fill="#23286B" points="205.148,116.926 203.148,116.926 203.148,109.679 205.148,109.928 	"/>
</g>
<g>
	<polygon fill="#23286B" points="178.622,112.931 176.622,112.931 176.622,106.028 178.622,106.401 	"/>
</g>
<g>
	<polygon fill="#23286B" points="152.096,108.921 150.096,108.921 150.096,101.8 152.096,102.126 	"/>
</g>
<g>
	<polygon fill="#23286B" points="152.27,125.217 150.27,125.217 150.27,115.786 147.673,115.786 147.673,113.786 152.27,113.786 	
		"/>
</g>
<g>
	<rect x="21.983" y="101.074" fill="#23286B" width="11.128" height="2"/>
</g>
<g>
	<polygon fill="#23286B" points="35.499,84.992 26.31,84.992 26.31,82.992 36.209,82.992 	"/>
</g>
</svg>